<?xml version="1.0" encoding="utf-8"?>
<!-- Generator: Adobe Illustrator 22.0.1, SVG Export Plug-In . SVG Version: 6.00 Build 0)  -->
<svg version="1.1" id="Layer_1" xmlns="http://www.w3.org/2000/svg" xmlns:xlink="http://www.w3.org/1999/xlink" x="0px" y="0px"
	 viewBox="0 0 108 108" style="enable-background:new 0 0 108 108;" xml:space="preserve">
<g>
	<g>
		<path d="M58.7,58.2l-9.9,9.9c-1.2,1.2-2.7,1.8-4.4,1.8c-1.7,0-3.2-0.6-4.4-1.8c-1.3-1.2-1.9-2.8-1.9-4.4c0-1.7,0.6-3.3,1.8-4.4
			l9.9-9.9l-8.6-8.6c-0.4-0.4-1.1-0.4-1.6,0c-22.1,22-18.2,39.7-15.2,42.8c1.1,1.1,4.2,2.4,8.8,2.4c7.9,0,20.1-3.6,34-17.6
			c0.4-0.4,0.4-1.1,0-1.6L58.7,58.2z"/>
		<path d="M84.3,25.2l-1.4-1.4c-1.2-1.2-2.7-1.8-4.3-1.8s-3.1,0.7-4.2,1.9L57,42.7c-0.4,0.4-0.9,1.4-0.3,3L41.5,60.9
			c-0.8,0.8-1.2,1.8-1.2,2.9s0.4,2.1,1.2,2.8c0.8,0.8,1.8,1.2,2.9,1.2c1.1,0,2.1-0.4,2.9-1.2l15.2-15.2c0.5,0.2,1,0.3,1.4,0.3
			c0.8,0,1.3-0.3,1.6-0.6l18.6-17.3c1.2-1.1,1.9-2.6,1.9-4.2C86.1,27.9,85.5,26.4,84.3,25.2z"/>
	</g>
</g>
</svg>
