<?xml version="1.0" encoding="utf-8"?>
<!-- Generator: Adobe Illustrator 22.0.1, SVG Export Plug-In . SVG Version: 6.00 Build 0)  -->
<svg version="1.1" id="Layer_1" xmlns="http://www.w3.org/2000/svg" xmlns:xlink="http://www.w3.org/1999/xlink" x="0px" y="0px"
	 viewBox="0 0 108 108" style="enable-background:new 0 0 108 108;" xml:space="preserve">
<g>
	<g>
		<path d="M82.5,20.5c-4.5,2.2-6.8,7-7.5,8.7l-3.3,1.6l-12.2-0.3c-0.4-0.1-0.9,0.2-1.2,0.6l-9.7,11.3c-0.1,0.1-0.2,0.2-0.2,0.4
			c0,0-0.1,0.1-0.1,0.2c-0.1,0.2-0.1,0.3-0.1,0.6l0.1,0.1c0.1,0.1,0,0.3,0.1,0.4l0,0c13.3,34.8,13.4,34.9,13.4,34.9
			c2.5,5.1,18.4-2.4,20.2-3.3c1.8-0.9,17.6-8.7,15-13.9c-2.6-5.4-0.7-10.6,1.6-16c2.3-6.2,4.7-12.4,1.3-19.4
			C97,20.7,90.1,16.8,82.5,20.5z M95.4,44.4c-1.2,3.2-2.5,6.6-2.8,9.9c-2.8-4.5-7.2-12-14.4-24.1c0.7-1.5,2.4-5.1,5.8-6.7
			c6.4-3.1,11.3,0.9,13.1,4.4C99.6,33.4,97.6,38.7,95.4,44.4z"/>
		<path d="M33.4,44.7c-0.3-0.4-0.7-0.6-1.2-0.7c-0.4-0.1-0.9,0.2-1.3,0.5c-1.9,1.9-3.3,4.1-4.2,6.6c-0.8,2.4-1.1,5-0.7,7.5
			c0.1,0.4,0.3,0.8,0.7,1.1c0.4,0.2,0.8,0.3,1.2,0.2l6.4-1.6l21,12.7c-1.3-3.6-3.2-8.4-5.9-15.2l-12-5.5L33.4,44.7z"/>
	</g>
</g>
<path d="M21.3,49.8c0,0-5.3-0.5-8.8,2.8C9.1,56,8.7,62.8,9.7,65.3c1,2.5,3.2,4.5,5,4.5c1.7,0,4.3,0,5.8-2.9c1.2-2.3-0.1-5.3-1.2-8.2
	C17.2,52.9,21.3,49.8,21.3,49.8z"/>
</svg>
